<svg version="1.1" id="Layer_1" xmlns="http://www.w3.org/2000/svg" xmlns:xlink="http://www.w3.org/1999/xlink" x="0px" y="0px"
	 width="100%" viewBox="0 0 492 494" enable-background="new 0 0 492 494" xml:space="preserve">
<path fill="#010001" opacity="1.000000" stroke="none" 
	d="
M269.000000,495.000000 
	C179.333359,495.000000 90.166710,495.000000 1.000048,495.000000 
	C1.000032,330.333405 1.000032,165.666794 1.000016,1.000136 
	C164.999893,1.000091 328.999786,1.000091 492.999756,1.000045 
	C492.999847,165.666519 492.999847,330.333038 492.999939,494.999786 
	C418.500000,495.000000 344.000000,495.000000 269.000000,495.000000 
M271.623505,116.706100 
	C271.445557,116.388680 271.184418,116.288872 270.481537,115.879379 
	C270.125000,115.653503 269.768494,115.427628 269.477631,114.812645 
	C269.477631,114.812645 269.171875,114.564606 269.171875,114.564606 
	C269.171875,114.564606 268.809906,114.719620 268.686554,114.474419 
	C268.686554,114.474419 268.457672,114.322899 268.483124,113.654915 
	C260.856689,107.611320 251.945847,106.107941 242.700241,107.327385 
	C233.583969,108.529762 225.820953,112.563866 221.061462,121.059944 
	C221.061462,121.059944 221.075165,121.138542 220.430527,121.344215 
	C219.404495,122.833138 218.244431,124.248650 217.380447,125.826309 
	C215.602417,129.073044 216.433823,130.772552 220.380035,130.754166 
	C238.873734,130.667938 257.367920,130.680710 275.861359,130.563614 
	C277.053406,130.556091 278.240448,129.753723 279.429810,129.321106 
	C278.875305,128.092361 278.320770,126.863617 277.663116,125.344826 
	C277.663116,125.344826 277.423645,125.152344 277.547485,124.730072 
	C277.459351,124.399277 277.244171,124.228157 276.675751,123.664192 
	C276.577118,123.491310 276.478516,123.318428 276.516113,122.732834 
	C276.407135,122.393997 276.178925,122.262917 275.784363,122.187187 
	C275.784363,122.187187 275.634521,122.132584 275.678131,121.616455 
	C275.344879,121.329330 275.011627,121.042198 274.458771,120.409561 
	C274.458771,120.409561 274.169281,120.120087 274.359802,119.812035 
	C274.359802,119.812035 274.136841,119.526695 274.136841,119.526695 
	C274.136841,119.526695 273.788788,119.628242 273.676544,119.353378 
	C273.676544,119.353378 273.447815,119.164108 273.550537,118.734589 
	C273.421631,118.398918 273.182739,118.274658 272.785461,118.209877 
	C272.785461,118.209877 272.633911,118.160210 272.615051,117.705139 
	C272.444916,117.389717 272.186005,117.275444 271.792664,117.210426 
	C271.792664,117.210426 271.642273,117.159988 271.623505,116.706100 
M176.690750,338.650146 
	C176.412613,338.477631 176.134460,338.305115 175.686447,337.659058 
	C175.409988,337.483704 175.133514,337.308350 174.694687,336.667084 
	C174.503281,336.370117 174.232300,336.199463 173.699463,335.674042 
	C173.418015,335.492126 173.136581,335.310211 172.687805,334.653351 
	C172.409332,334.481262 172.130875,334.309174 171.669891,333.667297 
	C171.387741,333.500427 171.105576,333.333527 170.663101,332.697510 
	C170.466385,332.397675 170.189026,332.237030 169.597748,331.587128 
	C161.067978,323.042542 152.538208,314.497986 143.949890,305.894775 
	C137.102875,314.767578 138.268341,331.848419 146.475952,341.576813 
	C157.227982,354.321075 175.048004,358.339386 187.705582,350.685028 
	C186.288330,345.443665 181.163925,343.598999 177.690521,339.659515 
	C177.417816,339.479218 177.145096,339.298920 176.690750,338.650146 
M348.243622,182.413467 
	C348.446564,182.700180 348.720886,182.874832 349.261383,183.390854 
	C349.460388,183.676010 349.730530,183.851929 350.353699,184.502548 
	C353.287292,187.080063 354.050079,184.394623 354.713806,182.497604 
	C361.457458,163.223267 349.413910,144.873444 334.966370,139.769791 
	C325.955414,136.586655 317.023804,136.074188 307.240143,141.352844 
	C309.177032,143.104538 310.644073,144.431320 312.120636,145.873535 
	C312.120636,145.873535 312.236053,145.881516 312.382111,146.526947 
	C323.945404,157.994888 335.508667,169.462830 347.242310,181.400070 
	C347.434937,181.694778 347.703156,181.880066 348.243622,182.413467 
M348.679993,309.332092 
	C348.342438,309.503693 348.196747,309.777405 348.163757,310.136505 
	C348.163757,310.136505 348.181854,310.215424 347.529358,310.370209 
	C345.108185,312.969666 342.687012,315.569122 339.787476,318.446075 
	C339.570892,318.741180 339.354279,319.036285 338.674103,319.349426 
	C338.352142,319.524597 338.239258,319.789032 338.210327,320.193481 
	C338.210327,320.193481 338.236023,320.325958 337.582062,320.440308 
	C329.157257,329.000092 320.732452,337.559906 312.142914,346.141235 
	C312.142914,346.141235 312.121277,346.305939 311.474976,346.410065 
	C310.480988,347.629333 309.487000,348.848602 308.493011,350.067871 
	C309.897034,351.060089 311.187317,352.322906 312.734955,352.973541 
	C314.520111,353.724030 316.511841,354.170105 318.449493,354.338684 
	C327.035919,355.085693 335.090424,353.714020 342.560669,347.786438 
	C343.609497,346.514038 344.658325,345.241608 346.153351,343.650085 
	C346.756042,342.968658 347.358734,342.287231 348.367798,341.374268 
	C348.589661,340.625214 348.811523,339.876160 349.560608,338.909180 
	C349.987274,338.534729 350.413971,338.160248 351.526154,337.650177 
	C357.580963,328.674011 358.157654,319.079376 354.501862,309.133087 
	C354.182648,308.264587 352.417450,307.927612 350.855682,307.552307 
	C350.623474,307.799103 350.391266,308.045898 349.673126,308.336731 
	C349.342834,308.525238 349.221497,308.804504 349.197815,309.198212 
	C349.197815,309.198212 349.172272,309.309143 348.679993,309.332092 
M381.820038,263.809631 
	C381.820038,263.809631 381.867493,263.622620 382.246857,263.609680 
	C382.246857,263.609680 382.471344,263.304138 382.471344,263.304138 
	C382.471344,263.304138 382.294495,262.968628 382.657593,262.511230 
	C382.954437,262.016205 383.251282,261.521179 384.228912,260.700226 
	C384.387817,259.738434 384.546722,258.776611 384.807404,257.762695 
	C384.807404,257.762695 384.797485,257.648804 385.191010,257.583008 
	C385.191010,257.583008 385.354950,257.220093 385.354950,257.220093 
	C385.354950,257.220093 385.110931,256.905334 385.416382,256.170258 
	C385.478271,255.912216 385.540161,255.654190 386.226288,255.244705 
	C386.330902,254.170776 386.435516,253.096832 386.966248,251.300354 
	C388.354523,246.036819 388.248901,240.924332 385.348083,235.569763 
	C385.272339,235.412842 385.196564,235.255920 385.351288,234.776779 
	C385.309479,234.440002 385.121399,234.300934 384.791534,234.255585 
	C384.791534,234.255585 384.688782,234.239059 384.778534,233.616791 
	C384.502533,233.092255 384.226562,232.567734 383.837891,231.343124 
	C380.126465,223.068024 373.478821,218.058731 364.755768,213.849365 
	C364.166260,216.547348 363.413116,218.541595 363.350708,220.557251 
	C363.175751,226.208328 363.284149,231.868210 363.283844,237.524628 
	C363.283203,249.168716 363.249695,260.812958 363.301544,272.456818 
	C363.323792,277.455017 365.078461,278.650269 369.263672,275.932526 
	C372.802307,273.634644 375.762543,270.446075 379.489105,267.531250 
	C379.807831,266.959290 380.126556,266.387329 380.728973,265.338165 
	C380.795807,265.165588 380.862640,264.993042 381.362946,264.694916 
	C381.648560,264.495850 381.743164,264.229065 381.820038,263.809631 
M334.643341,396.635315 
	C334.643341,396.635315 334.734772,396.587524 335.265137,396.639557 
	C335.371307,396.336792 335.477478,396.033997 335.632233,395.628937 
	C335.632233,395.628937 335.723541,395.561920 336.236206,395.600464 
	C336.338379,395.307587 336.440582,395.014740 336.593994,394.632080 
	C336.593994,394.632080 336.684875,394.582886 337.367493,394.586761 
	C338.168854,393.325836 338.970184,392.064880 339.866364,390.861969 
	C339.866364,390.861969 339.808716,390.766937 340.355469,390.741333 
	C340.485504,390.428467 340.615540,390.115601 340.825012,389.833710 
	C340.825012,389.833710 340.785828,389.757996 341.350250,389.656281 
	C341.407196,389.306702 341.464142,388.957092 341.666656,388.255463 
	C341.666656,388.255463 341.888733,387.945984 342.432953,387.811554 
	C342.542084,387.481445 342.651184,387.151367 342.919159,386.901825 
	C342.919159,386.901825 342.781342,386.788940 343.455658,386.659790 
	C343.866302,385.697968 344.276978,384.736145 344.744324,383.773621 
	C344.744324,383.773621 344.733337,383.718018 345.396393,383.535431 
	C347.221527,379.678986 349.165039,375.871765 350.799927,371.936279 
	C351.292969,370.749329 350.928955,369.206390 350.957581,367.826508 
	C349.562439,367.992218 347.990662,367.796356 346.799011,368.378571 
	C331.961273,375.627777 316.900909,375.654327 301.655762,369.927917 
	C299.163605,368.991791 298.235687,369.741760 298.194427,372.211578 
	C298.194427,372.211578 298.276703,372.286682 297.659943,372.508698 
	C297.322662,373.496765 296.985382,374.484863 296.539948,375.876801 
	C296.539948,375.876801 296.331421,376.239166 295.682190,376.357056 
	C295.576294,376.964783 295.470398,377.572479 295.347443,378.259155 
	C295.347443,378.259155 295.283417,378.308380 294.678497,378.433502 
	C294.519836,379.001343 294.361145,379.569153 294.113037,380.100616 
	C294.113037,380.100616 294.172333,380.176788 293.655823,380.295807 
	C293.604034,380.611115 293.552216,380.926453 293.451630,381.365509 
	C293.451630,381.365509 293.346252,381.446716 292.729980,381.469574 
	C292.560791,382.033173 292.391602,382.596771 292.157898,383.138885 
	C292.157898,383.138885 292.179718,383.203247 291.638794,383.279816 
	C291.557495,383.602509 291.476196,383.925201 291.373047,384.322632 
	C291.373047,384.322632 291.310913,384.369507 290.646881,384.394836 
	C290.131104,385.298523 289.615295,386.202240 288.998718,387.005432 
	C288.998718,387.005432 289.105286,387.098572 288.573242,387.206512 
	C288.437927,387.520264 288.302612,387.833984 288.037567,388.030426 
	C288.037567,388.030426 288.148438,388.165588 287.597687,388.211914 
	C287.459808,388.527771 287.321930,388.843658 287.044342,389.059387 
	C287.044342,389.059387 287.163574,389.183289 286.621704,389.236816 
	C286.473175,389.545105 286.324646,389.853394 286.055511,390.037140 
	C286.055511,390.037140 286.153137,390.180359 285.600159,390.195618 
	C285.440063,390.503723 285.279938,390.811859 285.001221,391.000000 
	C285.001221,391.000000 285.122314,391.118530 284.434479,391.116180 
	C283.037781,392.490051 281.641083,393.863892 280.136139,395.138519 
	C280.136139,395.138519 280.205872,395.267761 279.539368,395.186707 
	C278.761505,395.863739 277.983643,396.540771 277.051788,397.029755 
	C277.051788,397.029755 277.186035,397.232147 276.518677,397.179504 
	C275.704346,397.842560 274.890045,398.505615 273.736298,399.389435 
	C273.736298,399.389435 273.365601,399.552338 272.838837,399.414490 
	C272.627563,399.676697 272.416290,399.938904 272.137421,400.141541 
	C272.137421,400.141541 272.157623,400.229370 271.386414,400.140411 
	C269.043121,400.902527 266.620941,401.489746 264.388092,402.496765 
	C263.176239,403.043304 262.286621,404.304443 261.251648,405.243256 
	C262.305115,406.146729 263.245117,407.270630 264.445587,407.888611 
	C265.539551,408.451721 266.916107,408.465912 268.172699,408.778717 
	C268.172699,408.778717 268.225952,408.758820 268.424133,409.449738 
	C279.898468,415.310364 292.206665,414.819977 304.361084,413.343658 
	C309.316833,412.741730 313.974792,409.688568 318.896027,407.909821 
	C318.896027,407.909821 318.800140,407.729614 319.502625,407.855286 
	C320.982208,406.849548 322.461823,405.843842 324.259430,404.627594 
	C324.259430,404.627594 324.615875,404.491882 325.189423,404.629364 
	C325.394470,404.331024 325.599548,404.032715 326.244659,403.380951 
	C326.703400,403.056824 327.162109,402.732666 328.148926,402.580231 
	C328.329193,402.299744 328.509460,402.019287 328.719086,401.684784 
	C328.719086,401.684784 328.778259,401.668213 329.321442,401.715363 
	C329.479980,401.416138 329.638519,401.116913 329.877899,400.883301 
	C329.877899,400.883301 329.837646,400.787262 330.390991,400.799316 
	C330.553833,400.493408 330.716705,400.187531 331.000000,399.996155 
	C331.000000,399.996155 330.883698,399.876495 331.557251,399.899933 
	C332.240570,399.159180 332.923889,398.418427 333.653992,397.603333 
	C333.653992,397.603333 333.734528,397.568451 334.260742,397.622528 
	C334.370422,397.322845 334.480103,397.023193 334.643341,396.635315 
M177.484192,152.668304 
	C177.987823,151.798264 178.491455,150.928238 179.615616,149.813248 
	C181.383240,148.113998 183.150864,146.414764 185.570801,144.640793 
	C188.927322,142.449905 187.941772,140.430756 184.902740,139.456406 
	C181.467880,138.355194 177.799362,137.443405 174.223541,137.410248 
	C153.615051,137.219131 140.482605,152.434204 139.444717,170.268021 
	C139.137039,175.554733 139.169800,181.490814 143.236557,185.288040 
	C152.352600,176.606537 161.128769,168.248718 170.382172,159.738571 
	C170.557846,159.464874 170.733521,159.191162 171.509659,158.664703 
	C172.980576,157.081741 174.451508,155.498764 176.386429,153.736343 
	C176.678284,153.538437 176.853470,153.265594 177.484192,152.668304 
M272.989990,372.990479 
	C272.989990,372.990479 272.998627,373.036102 273.673218,372.932739 
	C274.895935,370.858704 276.118652,368.784698 277.647247,366.230530 
	C277.727661,366.058655 277.808105,365.886780 278.438904,365.481323 
	C280.393372,361.547058 277.820862,361.285553 275.003632,361.282288 
	C256.886871,361.261230 238.770020,361.282776 220.653458,361.216583 
	C216.800537,361.202484 215.325806,362.274841 217.341965,366.206390 
	C225.714767,382.533447 240.606369,387.110962 256.083313,384.257050 
	C261.091644,383.333527 265.435913,378.808594 270.370758,375.578674 
	C270.572510,375.348633 270.763306,375.109833 271.559052,374.730225 
	C272.051208,374.153259 272.543396,373.576294 272.989990,372.990479 
M132.139038,275.951508 
	C132.326492,265.245483 132.661789,254.539352 132.654648,243.833435 
	C132.648911,235.260651 132.200241,226.688766 132.003952,218.115204 
	C131.930206,214.894135 130.605713,214.345978 127.336777,216.161911 
	C115.706268,221.788498 109.716347,231.480255 108.395599,243.926498 
	C106.994904,257.126129 113.846603,266.754913 123.666878,274.443939 
	C125.646484,275.993927 128.931839,275.876251 132.139038,275.951508 
M389.160339,204.838913 
	C389.160339,204.838913 389.229767,204.839203 389.371246,205.493988 
	C397.532776,212.998840 402.337891,222.696198 406.253143,233.077621 
	C407.455872,232.302261 407.940826,232.113754 408.244476,231.766647 
	C408.785400,231.148224 409.327667,230.486664 409.677124,229.751724 
	C414.225342,220.186462 417.056122,210.142685 416.507812,199.509583 
	C415.161682,173.404251 398.495544,150.640137 373.434753,143.214966 
	C372.335785,142.889343 371.034668,143.246201 369.827728,143.285172 
	C369.969635,144.360733 369.960938,145.483185 370.278687,146.504013 
	C371.940125,151.841354 374.089752,157.061768 375.311401,162.493362 
	C377.519043,172.308777 375.937531,181.882004 372.505432,191.263290 
	C372.020050,192.590012 372.375000,195.310898 373.284760,195.881363 
	C378.415405,199.098434 383.834320,201.855682 389.160339,204.838913 
M246.426407,216.502594 
	C241.411453,199.956711 245.223175,203.577347 229.189789,203.701370 
	C220.036545,203.772186 216.119019,207.135712 213.380478,216.022018 
	C206.821014,237.306900 200.328964,258.612610 193.849899,279.922119 
	C193.440445,281.268738 193.375977,282.720245 192.901443,285.678955 
	C199.116806,284.698700 204.925598,284.938690 209.469849,282.658508 
	C212.487396,281.144409 214.224991,276.213165 215.552216,272.463470 
	C216.666428,269.315552 218.120026,268.290009 221.250671,268.409363 
	C226.237549,268.599487 231.256226,268.746246 236.224655,268.393280 
	C240.652863,268.078674 242.652908,269.622955 243.853577,274.006287 
	C246.675430,284.308167 256.062134,288.150085 266.645569,283.407806 
	C260.014191,261.405060 253.360931,239.329651 246.426407,216.502594 
M108.925934,288.714508 
	C99.300346,281.287964 93.302620,271.332794 89.026619,259.920593 
	C78.139656,277.857086 76.990509,296.395111 85.319252,315.179474 
	C93.138519,332.814819 106.619049,344.156372 126.822975,349.243164 
	C117.419876,331.662567 116.952820,314.750458 123.866203,297.758667 
	C118.836647,294.753662 114.161507,291.960419 108.925934,288.714508 
M299.968933,78.572701 
	C286.291412,77.093246 273.480347,79.276039 260.436340,87.576530 
	C279.843994,93.354195 292.211884,105.103119 298.610535,120.701790 
	C308.334961,119.440529 316.876282,117.149834 325.280975,117.572975 
	C333.805817,118.002167 342.195679,121.111649 350.479156,123.009323 
	C347.421814,102.252541 325.860260,82.839798 299.968933,78.572701 
M80.947258,190.725098 
	C78.383011,205.472290 80.800476,219.237564 88.373444,232.160706 
	C89.200661,231.786011 89.419090,231.759460 89.482849,231.645981 
	C89.802948,231.076355 90.157471,230.509399 90.365547,229.895935 
	C95.734726,214.066299 105.873024,202.557037 121.340134,196.009125 
	C124.316185,194.749222 123.721191,193.177155 122.836823,190.919159 
	C119.172211,181.562592 117.940727,171.836090 120.035538,162.001389 
	C121.364838,155.760620 123.672737,149.728287 125.536140,143.620911 
	C105.760231,145.773636 86.717888,165.589432 80.947258,190.725098 
M385.842438,289.550293 
	C381.311829,292.246796 376.781189,294.943268 371.959167,297.813171 
	C379.361298,314.937836 378.185120,331.805481 369.600525,348.407135 
	C384.807587,348.182556 405.674683,330.109192 412.127899,311.800293 
	C418.475342,293.791718 417.149292,276.471710 406.773285,258.607880 
	C402.370483,271.516357 396.454163,281.755249 385.842438,289.550293 
M180.950455,117.578529 
	C184.787415,118.633698 188.767410,119.342224 192.418076,120.848816 
	C195.594070,122.159531 196.982971,121.811768 198.397614,118.473801 
	C204.591888,103.858070 215.712418,94.429420 230.461761,89.026840 
	C231.716736,88.567154 232.900192,87.912224 235.018829,86.929718 
	C214.239914,75.552528 194.368103,74.934868 174.550201,85.735527 
	C159.347794,94.020775 149.409164,106.616135 144.652725,124.909668 
	C156.620407,118.606300 168.005707,116.243980 180.950455,117.578529 
M191.630539,371.759399 
	C175.834671,376.740692 160.513168,375.492645 145.446182,367.990021 
	C150.342346,388.076569 162.329910,401.894043 181.023621,409.411041 
	C199.175781,416.710236 216.952072,414.990814 234.265793,405.465881 
	C233.617889,404.542267 233.493820,404.188446 233.248581,404.051392 
	C232.671783,403.728912 232.051666,403.466736 231.423721,403.255524 
	C215.902130,398.034088 204.665634,388.056824 198.154816,372.986145 
	C196.678436,369.568756 194.698257,370.120789 191.630539,371.759399 
M293.709412,247.201447 
	C293.748688,234.071671 293.862366,220.941101 293.721802,207.813248 
	C293.706299,206.365921 292.550659,204.049988 291.389191,203.635681 
	C282.445892,200.445526 273.962769,205.850769 273.810211,215.339508 
	C273.457275,237.295486 273.624573,259.260254 273.679810,281.221191 
	C273.682648,282.343201 274.303833,284.031250 275.157990,284.493652 
	C281.942230,288.166443 292.546326,283.033875 293.144257,275.359070 
	C293.851929,266.276031 293.567657,257.115692 293.709412,247.201447 
z"/>
<path fill="#F468CA" opacity="1.000000" stroke="none" 
	d="
M246.567047,216.878418 
	C253.360931,239.329651 260.014191,261.405060 266.645569,283.407806 
	C256.062134,288.150085 246.675430,284.308167 243.853577,274.006287 
	C242.652908,269.622955 240.652863,268.078674 236.224655,268.393280 
	C231.256226,268.746246 226.237549,268.599487 221.250671,268.409363 
	C218.120026,268.290009 216.666428,269.315552 215.552216,272.463470 
	C214.224991,276.213165 212.487396,281.144409 209.469849,282.658508 
	C204.925598,284.938690 199.116806,284.698700 192.901443,285.678955 
	C193.375977,282.720245 193.440445,281.268738 193.849899,279.922119 
	C200.328964,258.612610 206.821014,237.306900 213.380478,216.022018 
	C216.119019,207.135712 220.036545,203.772186 229.189789,203.701370 
	C245.223175,203.577347 241.411453,199.956711 246.567047,216.878418 
M228.707504,224.781342 
	C226.119431,233.989395 223.531372,243.197449 220.800644,252.913086 
	C226.770004,252.913086 232.122986,252.913086 238.291504,252.913086 
	C235.552612,242.834747 232.963776,233.307663 230.315872,223.797043 
	C230.314346,223.791565 229.421051,224.034393 228.707504,224.781342 
z"/>
<path fill="#F468CA" opacity="1.000000" stroke="none" 
	d="
M109.206146,288.940857 
	C114.161507,291.960419 118.836647,294.753662 123.866203,297.758667 
	C116.952820,314.750458 117.419876,331.662567 126.822975,349.243164 
	C106.619049,344.156372 93.138519,332.814819 85.319252,315.179474 
	C76.990509,296.395111 78.139656,277.857086 89.026619,259.920593 
	C93.302620,271.332794 99.300346,281.287964 109.206146,288.940857 
z"/>
<path fill="#F468CB" opacity="1.000000" stroke="none" 
	d="
M300.362122,78.625824 
	C325.860260,82.839798 347.421814,102.252541 350.479156,123.009323 
	C342.195679,121.111649 333.805817,118.002167 325.280975,117.572975 
	C316.876282,117.149834 308.334961,119.440529 298.610535,120.701790 
	C292.211884,105.103119 279.843994,93.354195 260.436340,87.576530 
	C273.480347,79.276039 286.291412,77.093246 300.362122,78.625824 
z"/>
<path fill="#F468CA" opacity="1.000000" stroke="none" 
	d="
M81.007828,190.334015 
	C86.717888,165.589432 105.760231,145.773636 125.536140,143.620911 
	C123.672737,149.728287 121.364838,155.760620 120.035538,162.001389 
	C117.940727,171.836090 119.172211,181.562592 122.836823,190.919159 
	C123.721191,193.177155 124.316185,194.749222 121.340134,196.009125 
	C105.873024,202.557037 95.734726,214.066299 90.365547,229.895935 
	C90.157471,230.509399 89.802948,231.076355 89.482849,231.645981 
	C89.419090,231.759460 89.200661,231.786011 88.373444,232.160706 
	C80.800476,219.237564 78.383011,205.472290 81.007828,190.334015 
z"/>
<path fill="#F468CA" opacity="1.000000" stroke="none" 
	d="
M386.128906,289.326843 
	C396.454163,281.755249 402.370483,271.516357 406.773285,258.607880 
	C417.149292,276.471710 418.475342,293.791718 412.127899,311.800293 
	C405.674683,330.109192 384.807587,348.182556 369.600525,348.407135 
	C378.185120,331.805481 379.361298,314.937836 371.959167,297.813171 
	C376.781189,294.943268 381.311829,292.246796 386.128906,289.326843 
z"/>
<path fill="#F468CA" opacity="1.000000" stroke="none" 
	d="
M180.501312,117.514618 
	C168.005707,116.243980 156.620407,118.606300 144.652725,124.909668 
	C149.409164,106.616135 159.347794,94.020775 174.550201,85.735527 
	C194.368103,74.934868 214.239914,75.552528 235.018829,86.929718 
	C232.900192,87.912224 231.716736,88.567154 230.461761,89.026840 
	C215.712418,94.429420 204.591888,103.858070 198.397614,118.473801 
	C196.982971,121.811768 195.594070,122.159531 192.418076,120.848816 
	C188.767410,119.342224 184.787415,118.633698 180.501312,117.514618 
z"/>
<path fill="#F468CB" opacity="1.000000" stroke="none" 
	d="
M191.947449,371.626221 
	C194.698257,370.120789 196.678436,369.568756 198.154816,372.986145 
	C204.665634,388.056824 215.902130,398.034088 231.423721,403.255524 
	C232.051666,403.466736 232.671783,403.728912 233.248581,404.051392 
	C233.493820,404.188446 233.617889,404.542267 234.265793,405.465881 
	C216.952072,414.990814 199.175781,416.710236 181.023621,409.411041 
	C162.329910,401.894043 150.342346,388.076569 145.446182,367.990021 
	C160.513168,375.492645 175.834671,376.740692 191.947449,371.626221 
z"/>
<path fill="#F76ACD" opacity="1.000000" stroke="none" 
	d="
M273.365601,399.552338 
	C273.365601,399.552338 273.736298,399.389435 274.243347,399.309326 
	C275.562317,398.563568 276.374176,397.897858 277.186035,397.232147 
	C277.186035,397.232147 277.051788,397.029755 277.459290,397.162506 
	C278.646454,396.619415 279.426178,395.943604 280.205872,395.267761 
	C280.205872,395.267761 280.136139,395.138519 280.535797,395.201782 
	C282.331085,393.882874 283.726715,392.500702 285.122314,391.118530 
	C285.122314,391.118530 285.001221,391.000000 285.330017,391.036407 
	C285.823608,390.775330 285.988373,390.477844 286.153137,390.180359 
	C286.153137,390.180359 286.055511,390.037140 286.392853,390.082458 
	C286.874664,389.812927 287.019104,389.498108 287.163574,389.183289 
	C287.163574,389.183289 287.044342,389.059387 287.380981,389.073669 
	C287.861206,388.780518 288.004822,388.473053 288.148438,388.165588 
	C288.148438,388.165588 288.037567,388.030426 288.371704,388.044098 
	C288.838959,387.738037 288.972137,387.418304 289.105286,387.098572 
	C289.105286,387.098572 288.998718,387.005432 289.366211,386.997223 
	C290.259460,386.115845 290.785187,385.242676 291.310913,384.369507 
	C291.310913,384.369507 291.373047,384.322632 291.636658,384.230865 
	C291.993378,383.827148 292.086548,383.515198 292.179718,383.203247 
	C292.179718,383.203247 292.157898,383.138885 292.477966,383.080627 
	C292.980774,382.497162 293.163513,381.971954 293.346252,381.446716 
	C293.346252,381.446716 293.451630,381.365509 293.720490,381.239563 
	C294.050354,380.801331 294.111328,380.489075 294.172333,380.176788 
	C294.172333,380.176788 294.113037,380.100616 294.443604,380.022156 
	C294.943939,379.398560 295.113678,378.853485 295.283417,378.308380 
	C295.283417,378.308380 295.347443,378.259155 295.637695,378.099060 
	C296.062439,377.372406 296.196930,376.805786 296.331421,376.239166 
	C296.331421,376.239166 296.539948,375.876801 296.872253,375.519257 
	C297.561951,374.203369 297.919342,373.245026 298.276733,372.286682 
	C298.276703,372.286682 298.194427,372.211578 298.646240,372.181274 
	C300.674072,372.379242 302.262726,372.542603 303.823792,372.847504 
	C309.104523,373.878876 314.459839,376.128448 319.630859,375.755035 
	C327.845398,375.161774 335.937927,372.847870 344.073303,371.218018 
	C345.557831,370.920593 347.000519,370.414459 349.054535,369.838715 
	C347.434082,375.043457 346.083710,379.380737 344.733337,383.718018 
	C344.733337,383.718018 344.744324,383.773621 344.400269,383.855713 
	C343.631256,384.888153 343.206299,385.838562 342.781342,386.788940 
	C342.781342,386.788940 342.919159,386.901825 342.575623,386.929565 
	C342.117645,387.286896 342.003204,387.616425 341.888733,387.945984 
	C341.888733,387.945984 341.666656,388.255463 341.331604,388.508545 
	C340.926300,389.093719 340.856079,389.425873 340.785828,389.757996 
	C340.785828,389.757996 340.825012,389.833710 340.515350,389.836090 
	C340.073364,390.147949 339.941040,390.457428 339.808716,390.766937 
	C339.808716,390.766937 339.866364,390.861969 339.493347,390.878723 
	C338.308502,392.124573 337.496674,393.353729 336.684875,394.582886 
	C336.684875,394.582886 336.593994,394.632080 336.318176,394.667725 
	C335.936096,394.989532 335.829834,395.275726 335.723541,395.561920 
	C335.723541,395.561920 335.632233,395.628937 335.353577,395.673523 
	C334.961548,396.007904 334.848145,396.297699 334.734772,396.587524 
	C334.734772,396.587524 334.643341,396.635315 334.362915,396.669312 
	C333.966492,396.991669 333.850525,397.280060 333.734528,397.568451 
	C333.734528,397.568451 333.653992,397.603333 333.305908,397.619385 
	C332.266418,398.382477 331.575043,399.129486 330.883667,399.876465 
	C330.883698,399.876495 331.000000,399.996155 330.669769,399.951355 
	C330.172241,400.200104 330.004944,400.493683 329.837646,400.787262 
	C329.837646,400.787262 329.877899,400.883301 329.569153,400.837097 
	C329.099701,401.083344 328.938995,401.375763 328.778259,401.668213 
	C328.778259,401.668213 328.719086,401.684784 328.452332,401.657532 
	C327.997345,401.889679 327.809082,402.149109 327.620850,402.408539 
	C327.162109,402.732666 326.703400,403.056824 325.747986,403.519287 
	C325.039520,403.935699 324.827698,404.213806 324.615875,404.491882 
	C324.615875,404.491882 324.259430,404.627594 323.746490,404.727051 
	C321.755768,405.794220 320.277954,406.761932 318.800140,407.729614 
	C318.800140,407.729614 318.896027,407.909821 318.447906,407.774780 
	C306.294800,412.566772 294.192474,414.462830 281.625183,412.072723 
	C277.111938,411.214386 272.689728,409.877380 268.225952,408.758820 
	C268.225952,408.758820 268.172699,408.778717 268.017151,408.446228 
	C266.519104,407.153839 265.176605,406.194000 263.579620,405.052185 
	C266.877563,403.197968 269.517609,401.713684 272.157623,400.229370 
	C272.157623,400.229370 272.137421,400.141541 272.429993,400.222778 
	C272.936920,400.053467 273.151276,399.802917 273.365601,399.552338 
z"/>
<path fill="#F267C8" opacity="1.000000" stroke="none" 
	d="
M293.711395,247.595154 
	C293.567657,257.115692 293.851929,266.276031 293.144257,275.359070 
	C292.546326,283.033875 281.942230,288.166443 275.157990,284.493652 
	C274.303833,284.031250 273.682648,282.343201 273.679810,281.221191 
	C273.624573,259.260254 273.457275,237.295486 273.810211,215.339508 
	C273.962769,205.850769 282.445892,200.445526 291.389191,203.635681 
	C292.550659,204.049988 293.706299,206.365921 293.721802,207.813248 
	C293.862366,220.941101 293.748688,234.071671 293.711395,247.595154 
z"/>
<path fill="#AC1859" opacity="1.000000" stroke="none" 
	d="
M177.846329,340.137390 
	C181.163925,343.598999 186.288330,345.443665 187.705582,350.685028 
	C175.048004,358.339386 157.227982,354.321075 146.475952,341.576813 
	C138.268341,331.848419 137.102875,314.767578 143.949890,305.894775 
	C152.538208,314.497986 161.067978,323.042542 169.687119,331.956482 
	C169.776489,332.325867 169.717316,332.433685 169.377533,332.367004 
	C168.054779,333.575989 166.291809,334.819336 166.237244,336.133575 
	C166.082794,339.854370 166.755234,343.600769 166.855423,347.343719 
	C166.930481,350.148590 167.326141,352.372803 171.220581,352.296814 
	C176.607590,353.766876 181.147842,352.663086 185.116791,349.936829 
	C182.477432,346.655640 179.965698,343.533081 177.551575,340.341553 
	C177.649185,340.272583 177.846329,340.137390 177.846329,340.137390 
M149.751495,314.379150 
	C148.964874,313.519379 148.185852,312.652496 147.390152,311.801208 
	C145.251175,309.512848 143.742981,310.113495 142.561249,312.784698 
	C139.297958,320.161163 141.955841,332.947815 148.050873,338.848907 
	C150.341171,342.268921 152.652084,345.656891 157.052307,345.354431 
	C157.052307,341.780518 156.564072,338.508148 157.146362,335.438873 
	C158.718506,327.151947 156.196777,320.495209 149.751495,314.379150 
z"/>
<path fill="#A91958" opacity="1.000000" stroke="none" 
	d="
M221.140472,121.071701 
	C225.820953,112.563866 233.583969,108.529762 242.700241,107.327385 
	C251.945847,106.107941 260.856689,107.611320 268.158997,113.982956 
	C267.219421,114.219711 266.603973,114.128433 265.778503,113.773506 
	C263.713379,112.671692 261.858276,111.833527 259.702972,110.762650 
	C255.321167,108.899338 253.502533,110.885986 253.107559,114.677689 
	C252.853729,117.114464 252.949585,119.591194 252.947983,122.050056 
	C252.943390,129.073181 252.955307,129.073196 260.441589,128.877701 
	C262.240936,128.891327 263.625977,128.869629 265.472351,128.885178 
	C268.834961,128.976639 271.744141,128.917297 274.635284,129.118118 
	C277.334503,129.305603 278.023071,127.963531 277.766266,125.634872 
	C278.320770,126.863617 278.875305,128.092361 279.429810,129.321106 
	C278.240448,129.753723 277.053406,130.556091 275.861359,130.563614 
	C257.367920,130.680710 238.873734,130.667938 220.380035,130.754166 
	C216.433823,130.772552 215.602417,129.073044 217.380447,125.826309 
	C218.244431,124.248650 219.404495,122.833138 220.740631,121.614235 
	C218.074936,128.955322 218.090775,128.983459 225.215302,128.819901 
	C225.714600,128.595581 225.952423,128.399445 226.566498,128.157104 
	C228.676437,128.133820 230.366058,128.103302 232.499222,128.083130 
	C242.132812,128.023529 243.293533,127.199974 242.897232,119.053787 
	C242.771820,116.475632 241.263977,112.196976 239.718628,111.870697 
	C237.410736,111.383446 234.509323,113.707489 231.571426,115.032303 
	C227.901779,117.176598 224.521133,119.124153 221.140472,121.071701 
z"/>
<path fill="#A53679" opacity="1.000000" stroke="none" 
	d="
M389.154999,204.769669 
	C383.834320,201.855682 378.415405,199.098434 373.284760,195.881363 
	C372.375000,195.310898 372.020050,192.590012 372.505432,191.263290 
	C375.937531,181.882004 377.519043,172.308777 375.311401,162.493362 
	C374.089752,157.061768 371.940125,151.841354 370.278687,146.504013 
	C369.960938,145.483185 369.969635,144.360733 369.827698,143.285172 
	C371.034668,143.246201 372.335785,142.889343 373.434753,143.214966 
	C398.495544,150.640137 415.161682,173.404251 416.507812,199.509583 
	C417.056122,210.142685 414.225342,220.186462 409.677124,229.751724 
	C409.327667,230.486664 408.785400,231.148224 408.244476,231.766647 
	C407.940826,232.113754 407.455872,232.302261 406.253143,233.077621 
	C402.337891,222.696198 397.532776,212.998840 389.646606,205.170654 
	C398.707642,210.547302 402.265869,220.058640 406.924164,228.924622 
	C416.872955,216.224442 418.182495,189.767578 406.016296,170.635345 
	C398.223053,158.379959 388.085022,149.212402 373.021088,145.379639 
	C373.145844,147.125122 373.062622,147.659210 373.232727,148.094269 
	C378.761963,162.235382 379.848907,176.452576 374.549957,190.983093 
	C374.121643,192.157593 375.737335,194.674286 377.061157,195.778198 
	C380.913239,198.990265 385.099670,201.801331 389.154999,204.769669 
z"/>
<path fill="#A91657" opacity="1.000000" stroke="none" 
	d="
M378.978760,267.651703 
	C375.762543,270.446075 372.802307,273.634644 369.263672,275.932526 
	C365.078461,278.650269 363.323792,277.455017 363.301544,272.456818 
	C363.249695,260.812958 363.283203,249.168716 363.283844,237.524628 
	C363.284149,231.868210 363.175751,226.208328 363.350708,220.557251 
	C363.413116,218.541595 364.166260,216.547348 364.755768,213.849365 
	C373.478821,218.058731 380.126465,223.068024 383.786194,231.791260 
	C383.734528,232.239395 383.518494,232.435654 383.281433,232.223633 
	C381.694611,230.349594 380.344849,228.687592 378.730957,226.845352 
	C377.967926,227.341980 377.035767,228.019257 377.036438,228.695679 
	C377.043671,236.308105 377.089539,243.924316 377.371796,251.530334 
	C377.453552,253.731995 378.324005,255.904373 378.826416,258.390381 
	C378.790802,259.088562 378.761688,259.486511 378.408569,260.031464 
	C376.609741,262.382233 375.848602,264.478180 378.967346,266.266266 
	C378.974335,266.913269 378.976532,267.282471 378.978760,267.651703 
M365.043030,229.551453 
	C365.042328,242.022217 365.039795,254.492981 365.043518,266.963745 
	C365.043915,268.293457 364.926025,269.647949 365.133209,270.947845 
	C365.591370,273.822083 366.769684,274.838959 369.410187,272.580933 
	C372.201782,270.193634 373.801453,267.685394 371.979950,263.937286 
	C371.503113,262.956146 371.460541,261.687744 371.476746,260.554962 
	C371.644287,248.829071 371.894257,237.104324 372.053650,225.378357 
	C372.105438,221.565445 370.003754,219.378220 365.043732,217.844086 
	C365.043732,221.866714 365.043732,225.221451 365.043030,229.551453 
z"/>
<path fill="#A11954" opacity="1.000000" stroke="none" 
	d="
M347.071960,180.930771 
	C335.508667,169.462830 323.945404,157.994888 312.648682,146.219727 
	C314.896393,147.321030 316.877533,148.729568 319.047424,150.422592 
	C321.669159,152.268066 324.014496,154.008041 326.593903,155.269516 
	C327.275055,155.602615 329.266144,154.747787 329.657898,153.949036 
	C333.192139,146.743378 329.041260,140.147842 320.586334,139.959534 
	C317.226410,140.304474 314.300018,140.659576 311.217926,141.033554 
	C311.636505,143.247604 311.873840,144.502838 312.111145,145.758087 
	C310.644073,144.431320 309.177032,143.104538 307.240143,141.352844 
	C317.023804,136.074188 325.955414,136.586655 334.966370,139.769791 
	C349.413910,144.873444 361.457458,163.223267 354.713806,182.497604 
	C354.050079,184.394623 353.287292,187.080063 350.316223,184.071869 
	C350.278778,183.641205 350.486633,183.364456 350.778564,183.440948 
	C356.285217,177.625748 354.492279,170.512543 353.484283,164.090164 
	C352.807220,159.776291 349.346741,155.899277 347.060120,151.495117 
	C344.670990,149.416016 342.353271,147.668610 340.015289,145.941879 
	C339.994995,145.962555 340.040924,145.996826 339.923676,145.755066 
	C339.535767,145.278503 339.265076,145.043701 338.799683,144.520981 
	C335.152679,141.802780 334.105255,143.844742 333.990631,146.900055 
	C333.828644,151.218567 334.089996,155.554764 333.879120,159.869171 
	C333.663788,164.274841 335.204926,167.639709 339.042114,170.338867 
	C341.122559,172.433212 343.028564,174.245667 345.103149,176.339951 
	C346.059814,177.908539 346.847870,179.195312 347.495239,180.594635 
	C347.354553,180.707184 347.071960,180.930771 347.071960,180.930771 
z"/>
<path fill="#A21654" opacity="1.000000" stroke="none" 
	d="
M270.083923,375.931030 
	C265.435913,378.808594 261.091644,383.333527 256.083313,384.257050 
	C240.606369,387.110962 225.714767,382.533447 217.341965,366.206390 
	C215.325806,362.274841 216.800537,361.202484 220.653458,361.216583 
	C238.770020,361.282776 256.886871,361.261230 275.003632,361.282288 
	C277.820862,361.285553 280.393372,361.547058 278.111633,365.210571 
	C276.581482,364.268158 275.412842,363.108826 274.168976,363.021545 
	C271.134186,362.808563 268.064575,363.092041 264.568787,363.126465 
	C261.769745,363.116852 259.410950,363.156433 256.651672,363.150879 
	C254.257614,363.931946 250.641891,364.595337 250.539871,365.611420 
	C249.976669,371.221924 250.270447,376.918427 250.270447,383.284088 
	C253.188568,382.723236 255.078568,382.359955 257.330872,381.938538 
	C260.455933,380.604553 263.218719,379.328735 266.305450,377.981140 
	C267.780884,377.249939 268.932404,376.590485 270.083923,375.931030 
M233.520615,379.540649 
	C242.202621,382.179443 242.202621,382.179443 243.276596,376.159149 
	C245.283646,364.908295 244.520355,363.957642 232.012543,363.159912 
	C229.015274,363.115784 226.018127,363.045868 223.020721,363.034241 
	C219.460983,363.020447 218.580338,364.442322 220.279816,367.712769 
	C223.097656,373.135376 227.888535,376.241699 233.520615,379.540649 
z"/>
<path fill="#A71656" opacity="1.000000" stroke="none" 
	d="
M169.904938,159.890900 
	C161.128769,168.248718 152.352600,176.606537 143.236557,185.288040 
	C139.169800,181.490814 139.137039,175.554733 139.444717,170.268021 
	C140.482605,152.434204 153.615051,137.219131 174.223541,137.410248 
	C177.799362,137.443405 181.467880,138.355194 184.902740,139.456406 
	C187.941772,140.430756 188.927322,142.449905 185.366425,144.408020 
	C184.966965,143.139633 184.967804,141.303909 184.544525,141.200287 
	C182.080368,140.596939 179.516632,140.400299 176.720673,139.808884 
	C174.977234,139.427551 173.499680,139.303589 171.637100,139.169281 
	C167.405014,139.378128 165.775436,141.382050 165.903900,145.250443 
	C166.070511,150.267700 165.944565,155.294678 165.944565,160.604492 
	C167.230011,160.251541 168.463074,159.912979 169.749054,159.653046 
	C169.801987,159.731689 169.904938,159.890900 169.904938,159.890900 
M151.316040,149.050018 
	C142.601059,156.836899 140.169220,166.684418 142.060577,177.843964 
	C142.280838,179.143616 143.259811,180.930435 144.301407,181.289520 
	C145.212341,181.603577 146.934799,180.460205 147.887695,179.536591 
	C149.173813,178.290054 150.066269,176.637405 151.787506,174.975677 
	C159.424118,169.690720 163.653030,155.973145 159.946976,147.424515 
	C159.464752,146.312134 156.894958,145.368820 155.500504,145.600632 
	C154.179871,145.820221 153.133255,147.687988 151.316040,149.050018 
z"/>
<path fill="#AC1859" opacity="1.000000" stroke="none" 
	d="
M341.897949,347.899414 
	C335.090424,353.714020 327.035919,355.085693 318.449493,354.338684 
	C316.511841,354.170105 314.520111,353.724030 312.734955,352.973541 
	C311.187317,352.322906 309.897034,351.060089 308.493011,350.067871 
	C309.487000,348.848602 310.480988,347.629333 311.789246,346.748962 
	C312.718689,348.439911 313.049957,350.704773 313.994354,350.998566 
	C321.047913,353.192749 328.020782,353.287140 326.992432,342.973450 
	C326.840607,341.450470 326.415649,339.251038 325.404449,338.719055 
	C324.429840,338.206299 322.358215,339.169312 321.075500,339.973572 
	C318.055542,341.867096 315.218597,344.052399 312.307617,346.119690 
	C320.732452,337.559906 329.157257,329.000092 338.031311,320.511841 
	C338.480560,320.583344 338.614044,320.912415 338.389740,321.243896 
	C332.653442,330.227539 335.450104,339.310699 335.837524,348.836243 
	C338.413727,348.253174 339.986359,347.897217 341.643799,347.630737 
	C341.728577,347.720215 341.897949,347.899414 341.897949,347.899414 
z"/>
<path fill="#A41956" opacity="1.000000" stroke="none" 
	d="
M131.615173,276.527466 
	C128.931839,275.876251 125.646484,275.993927 123.666878,274.443939 
	C113.846603,266.754913 106.994904,257.126129 108.395599,243.926498 
	C109.716347,231.480255 115.706268,221.788498 127.787766,216.212769 
	C128.238754,216.263626 128.444534,216.492233 128.259735,216.721161 
	C127.577835,217.560226 127.080727,218.170364 126.339050,218.854874 
	C125.677971,219.240509 125.261452,219.551773 124.534424,220.074600 
	C123.455780,222.198639 122.050980,224.101624 122.022301,226.025131 
	C121.828850,239.002853 121.757332,251.988998 122.069084,264.962250 
	C122.133949,267.661346 123.967453,270.317963 125.171425,273.212219 
	C125.885727,273.625244 126.414467,273.820160 127.156799,274.257965 
	C128.553314,274.971771 129.736237,275.442719 131.086517,276.074646 
	C131.253876,276.235626 131.615173,276.527466 131.615173,276.527466 
M118.070969,254.236542 
	C118.247467,247.458328 118.489571,240.680618 118.540718,233.901459 
	C118.550056,232.663208 117.781242,231.419052 117.371628,230.177628 
	C116.120590,230.814209 114.438095,231.130829 113.689606,232.140106 
	C109.318596,238.034012 109.057648,252.139359 113.204079,258.308838 
	C114.252518,259.868805 116.016197,260.948120 118.503250,263.201477 
	C118.297699,259.362091 118.184937,257.255951 118.070969,254.236542 
z"/>
<path fill="#841C57" opacity="1.000000" stroke="none" 
	d="
M345.064880,383.626709 
	C346.083710,379.380737 347.434082,375.043457 349.054535,369.838715 
	C347.000519,370.414459 345.557831,370.920593 344.073303,371.218018 
	C335.937927,372.847870 327.845398,375.161774 319.630859,375.755035 
	C314.459839,376.128448 309.104523,373.878876 303.823792,372.847504 
	C302.262726,372.542603 300.674072,372.379242 298.700745,372.192749 
	C298.235687,369.741760 299.163605,368.991791 301.655762,369.927917 
	C316.900909,375.654327 331.961273,375.627777 346.799011,368.378571 
	C347.990662,367.796356 349.562439,367.992218 350.957581,367.826508 
	C350.928955,369.206390 351.292969,370.749329 350.799927,371.936279 
	C349.165039,375.871765 347.221527,379.678986 345.064880,383.626709 
z"/>
<path fill="#D95690" opacity="1.000000" stroke="none" 
	d="
M350.840668,337.785767 
	C350.413971,338.160248 349.987274,338.534729 349.286621,338.588135 
	C349.005920,333.706787 349.187164,329.136108 348.935425,324.589417 
	C348.719391,320.687500 348.008270,316.812958 347.645233,312.597961 
	C347.910187,311.584900 348.046021,310.900146 348.181854,310.215424 
	C348.181854,310.215424 348.163757,310.136505 348.428131,310.095581 
	C348.989746,309.894501 349.149658,309.645996 349.172272,309.309143 
	C349.172272,309.309143 349.197815,309.198212 349.470154,309.126709 
	C350.015778,308.874481 350.154633,308.620300 350.159058,308.292694 
	C350.391266,308.045898 350.623474,307.799103 351.305359,307.698608 
	C352.530975,309.645813 353.482544,311.393036 354.052765,313.256897 
	C356.696655,321.898621 353.884186,329.865784 350.840668,337.785767 
z"/>
<path fill="#D64E8A" opacity="1.000000" stroke="none" 
	d="
M265.988525,114.037148 
	C266.603973,114.128433 267.219421,114.219711 268.146271,114.316948 
	C268.457672,114.322899 268.686554,114.474419 268.790009,114.735840 
	C269.024506,115.171478 269.197327,115.239647 269.411957,115.201752 
	C269.768494,115.427628 270.125000,115.653503 270.721619,116.333870 
	C271.124542,117.029579 271.351379,117.153450 271.642273,117.159988 
	C271.642273,117.159988 271.792664,117.210426 271.871277,117.483826 
	C272.107941,118.010254 272.335968,118.144585 272.633911,118.160210 
	C272.633911,118.160210 272.785461,118.209877 272.835144,118.468666 
	C272.994812,118.973228 273.182465,119.118782 273.447815,119.164108 
	C273.447815,119.164108 273.676544,119.353378 273.732544,119.611076 
	C273.788513,119.868774 274.169281,120.120087 274.169281,120.120087 
	C274.169281,120.120087 274.458771,120.409561 274.606079,120.801224 
	C275.047089,121.506111 275.340790,121.819351 275.634521,122.132584 
	C275.634521,122.132584 275.784363,122.187187 275.820618,122.441345 
	C275.950226,122.939697 276.124573,123.089706 276.379944,123.145546 
	C276.478516,123.318428 276.577118,123.491310 276.798065,124.132324 
	C276.997223,124.867332 277.164978,125.051292 277.423645,125.152344 
	C277.423645,125.152344 277.663116,125.344826 277.714691,125.489853 
	C278.023071,127.963531 277.334503,129.305603 274.635284,129.118118 
	C271.744141,128.917297 268.834961,128.976639 265.472107,128.468933 
	C265.336517,123.356003 265.662506,118.696571 265.988525,114.037148 
z"/>
<path fill="#D64E8A" opacity="1.000000" stroke="none" 
	d="
M265.008972,363.175629 
	C268.064575,363.092041 271.134186,362.808563 274.168976,363.021545 
	C275.412842,363.108826 276.581482,364.268158 277.836426,365.327362 
	C277.808105,365.886780 277.727661,366.058655 277.191284,366.582184 
	C275.489746,368.967926 274.244202,371.002014 272.998657,373.036102 
	C272.998627,373.036102 272.989990,372.990479 272.723022,373.054810 
	C271.951782,373.700226 271.447479,374.281281 270.943146,374.862335 
	C270.763306,375.109833 270.572510,375.348633 270.227356,375.754852 
	C268.932404,376.590485 267.780884,377.249939 266.309692,377.574524 
	C265.662964,372.551666 265.335968,367.863647 265.008972,363.175629 
z"/>
<path fill="#D33E80" opacity="1.000000" stroke="none" 
	d="
M338.614044,320.912415 
	C338.614044,320.912415 338.480560,320.583344 338.358276,320.454651 
	C338.236023,320.325958 338.210327,320.193481 338.468872,320.105652 
	C338.976776,319.856262 339.113525,319.627441 339.137695,319.331360 
	C339.354279,319.036285 339.570892,318.741180 340.347168,318.285095 
	C342.148590,317.386078 343.390350,316.648041 344.890808,316.167419 
	C345.126617,323.303558 344.930847,330.189331 345.212585,337.055511 
	C345.276276,338.607269 347.001190,340.090851 347.961426,341.605835 
	C347.358734,342.287231 346.756042,342.968658 345.651123,343.925842 
	C344.103943,344.825500 343.058990,345.449371 341.991882,345.694336 
	C341.517883,343.452881 340.726715,341.599182 340.678101,339.726166 
	C340.534180,334.182556 340.762085,328.629333 340.624176,323.085388 
	C340.605743,322.344849 339.315399,321.635956 338.614044,320.912415 
z"/>
<path fill="#A41956" opacity="1.000000" stroke="none" 
	d="
M128.136292,216.148926 
	C130.605713,214.345978 131.930206,214.894135 132.003952,218.115204 
	C132.200241,226.688766 132.648911,235.260651 132.654648,243.833435 
	C132.661789,254.539352 132.326492,265.245483 131.877106,276.239502 
	C131.615173,276.527466 131.253876,276.235626 131.107635,275.613892 
	C130.984634,256.828674 131.038269,238.665054 130.979431,220.501785 
	C130.974121,218.861893 132.126511,216.009583 128.444534,216.492233 
	C128.444534,216.492233 128.238754,216.263626 128.136292,216.148926 
z"/>
<path fill="#D94285" opacity="1.000000" stroke="none" 
	d="
M348.164612,341.490051 
	C347.001190,340.090851 345.276276,338.607269 345.212585,337.055511 
	C344.930847,330.189331 345.126617,323.303558 345.017273,315.877686 
	C345.762024,314.529083 346.639038,313.727692 347.516113,312.926331 
	C348.008270,316.812958 348.719391,320.687500 348.935425,324.589417 
	C349.187164,329.136108 349.005920,333.706787 349.023010,338.697083 
	C348.811523,339.876160 348.589661,340.625214 348.164612,341.490051 
z"/>
<path fill="#841C57" opacity="1.000000" stroke="none" 
	d="
M268.325043,409.104279 
	C272.689728,409.877380 277.111938,411.214386 281.625183,412.072723 
	C294.192474,414.462830 306.294800,412.566772 318.384003,407.695190 
	C313.974792,409.688568 309.316833,412.741730 304.361084,413.343658 
	C292.206665,414.819977 279.898468,415.310364 268.325043,409.104279 
z"/>
<path fill="#D64E8A" opacity="1.000000" stroke="none" 
	d="
M385.602051,255.396149 
	C385.540161,255.654190 385.478271,255.912216 385.130432,256.616394 
	C384.699219,257.247650 384.683533,257.443054 384.797485,257.648804 
	C384.797485,257.648804 384.807404,257.762695 384.481384,257.821838 
	C383.810974,258.013824 383.466553,258.146667 382.968506,257.919952 
	C382.544006,253.368423 381.953491,249.165192 382.100311,244.987869 
	C382.224823,241.444611 383.201172,237.931274 384.028625,234.395447 
	C384.256683,234.386200 384.688782,234.239059 384.688782,234.239059 
	C384.688782,234.239059 384.791534,234.255585 384.754639,234.460022 
	C384.755371,234.899094 384.889709,235.043930 385.120758,235.098984 
	C385.196564,235.255920 385.272339,235.412842 385.235535,236.168167 
	C385.334595,241.912766 385.546265,247.058975 385.721832,252.522400 
	C385.657837,253.691818 385.629944,254.543976 385.602051,255.396149 
z"/>
<path fill="#D64E8A" opacity="1.000000" stroke="none" 
	d="
M176.986542,140.066238 
	C179.516632,140.400299 182.080368,140.596939 184.544525,141.200287 
	C184.967804,141.303909 184.966965,143.139633 185.040253,144.445374 
	C183.150864,146.414764 181.383240,148.113998 179.045227,149.892578 
	C178.298813,149.978073 178.122772,149.984238 177.717758,149.661987 
	C177.321381,146.244446 177.153961,143.155350 176.986542,140.066238 
z"/>
<path fill="#A11954" opacity="1.000000" stroke="none" 
	d="
M351.183411,337.717987 
	C353.884186,329.865784 356.696655,321.898621 354.052765,313.256897 
	C353.482544,311.393036 352.530975,309.645813 351.539459,307.594299 
	C352.417450,307.927612 354.182648,308.264587 354.501862,309.133087 
	C358.157654,319.079376 357.580963,328.674011 351.183411,337.717987 
z"/>
<path fill="#A11954" opacity="1.000000" stroke="none" 
	d="
M385.757935,252.205170 
	C385.546265,247.058975 385.334595,241.912766 385.275513,236.426468 
	C388.248901,240.924332 388.354523,246.036819 386.556824,251.703522 
	C386.147369,252.106689 385.757904,252.205170 385.757935,252.205170 
z"/>
<path fill="#841C57" opacity="1.000000" stroke="none" 
	d="
M271.772034,400.184875 
	C269.517609,401.713684 266.877563,403.197968 263.579620,405.052185 
	C265.176605,406.194000 266.519104,407.153839 268.014832,408.417908 
	C266.916107,408.465912 265.539551,408.451721 264.445587,407.888611 
	C263.245117,407.270630 262.305115,406.146729 261.251648,405.243256 
	C262.286621,404.304443 263.176239,403.043304 264.388092,402.496765 
	C266.620941,401.489746 269.043121,400.902527 271.772034,400.184875 
z"/>
<path fill="#CC2E73" opacity="1.000000" stroke="none" 
	d="
M378.962585,265.988495 
	C375.848602,264.478180 376.609741,262.382233 378.662384,260.201752 
	C380.313446,260.534882 381.386719,260.844727 382.735718,261.154053 
	C383.190338,261.111115 383.369232,261.068665 383.548096,261.026184 
	C383.251282,261.521179 382.954437,262.016205 382.356720,262.809570 
	C381.914734,263.250793 381.851959,263.422363 381.867493,263.622620 
	C381.867493,263.622620 381.820038,263.809631 381.557373,263.955994 
	C381.085480,264.297241 380.963745,264.536621 380.929443,264.820465 
	C380.862640,264.993042 380.795807,265.165588 380.337311,265.566528 
	C379.617950,265.859467 379.290283,265.923981 378.962585,265.988495 
z"/>
<path fill="#A11954" opacity="1.000000" stroke="none" 
	d="
M347.645203,312.597961 
	C346.639038,313.727692 345.762024,314.529083 344.758545,315.620209 
	C343.390350,316.648041 342.148590,317.386078 340.586365,318.146362 
	C342.687012,315.569122 345.108185,312.969666 347.855591,310.292816 
	C348.046021,310.900146 347.910187,311.584900 347.645203,312.597961 
z"/>
<path fill="#A71656" opacity="1.000000" stroke="none" 
	d="
M175.922424,153.915802 
	C174.451508,155.498764 172.980576,157.081741 171.135406,158.738037 
	C170.761139,158.811356 170.614487,158.703308 170.743225,158.421371 
	C171.199753,157.379395 171.527557,156.619354 172.058868,155.606430 
	C173.377914,154.732224 174.493484,154.110916 175.687836,153.595825 
	C175.766617,153.702042 175.922424,153.915802 175.922424,153.915802 
z"/>
<path fill="#841C57" opacity="1.000000" stroke="none" 
	d="
M284.778381,391.117371 
	C283.726715,392.500702 282.331085,393.882874 280.589905,395.251404 
	C281.641083,393.863892 283.037781,392.490051 284.778381,391.117371 
z"/>
<path fill="#A21654" opacity="1.000000" stroke="none" 
	d="
M273.335938,372.984436 
	C274.244202,371.002014 275.489746,368.967926 277.038361,366.822266 
	C276.118652,368.784698 274.895935,370.858704 273.335938,372.984436 
z"/>
<path fill="#841C57" opacity="1.000000" stroke="none" 
	d="
M319.151367,407.792450 
	C320.277954,406.761932 321.755768,405.794220 323.587494,404.832336 
	C322.461823,405.843842 320.982208,406.849548 319.151367,407.792450 
z"/>
<path fill="#AC1859" opacity="1.000000" stroke="none" 
	d="
M342.014038,346.073242 
	C343.058990,345.449371 344.103943,344.825500 345.428040,344.085419 
	C344.658325,345.241608 343.609497,346.514038 342.229309,347.842926 
	C341.897949,347.899414 341.728577,347.720215 341.754272,347.399139 
	C341.857971,346.743134 341.936005,346.408173 342.014038,346.073242 
z"/>
<path fill="#841C57" opacity="1.000000" stroke="none" 
	d="
M337.026184,394.584839 
	C337.496674,393.353729 338.308502,392.124573 339.445923,390.849701 
	C338.970184,392.064880 338.168854,393.325836 337.026184,394.584839 
z"/>
<path fill="#A11954" opacity="1.000000" stroke="none" 
	d="
M383.888519,260.863220 
	C383.369232,261.068665 383.190338,261.111115 382.884186,260.804688 
	C382.878662,259.730377 383.000427,259.004944 383.122162,258.279480 
	C383.466553,258.146667 383.810974,258.013824 384.430481,257.847900 
	C384.546722,258.776611 384.387817,259.738434 383.888519,260.863220 
z"/>
<path fill="#841C57" opacity="1.000000" stroke="none" 
	d="
M343.118500,386.724365 
	C343.206299,385.838562 343.631256,384.888153 344.371887,383.856049 
	C344.276978,384.736145 343.866302,385.697968 343.118500,386.724365 
z"/>
<path fill="#841C57" opacity="1.000000" stroke="none" 
	d="
M290.978882,384.382172 
	C290.785187,385.242676 290.259460,386.115845 289.416626,387.047485 
	C289.615295,386.202240 290.131104,385.298523 290.978882,384.382172 
z"/>
<path fill="#841C57" opacity="1.000000" stroke="none" 
	d="
M279.872620,395.227234 
	C279.426178,395.943604 278.646454,396.619415 277.536285,397.256531 
	C277.983643,396.540771 278.761505,395.863739 279.872620,395.227234 
z"/>
<path fill="#841C57" opacity="1.000000" stroke="none" 
	d="
M276.852356,397.205811 
	C276.374176,397.897858 275.562317,398.563568 274.413086,399.198975 
	C274.890045,398.505615 275.704346,397.842560 276.852356,397.205811 
z"/>
<path fill="#841C57" opacity="1.000000" stroke="none" 
	d="
M331.220459,399.888184 
	C331.575043,399.129486 332.266418,398.382477 333.282532,397.656555 
	C332.923889,398.418427 332.240570,399.159180 331.220459,399.888184 
z"/>
<path fill="#A91657" opacity="1.000000" stroke="none" 
	d="
M385.721802,252.522400 
	C385.757904,252.205170 386.147369,252.106689 386.343750,252.064789 
	C386.435516,253.096832 386.330902,254.170776 385.914185,255.320435 
	C385.629944,254.543976 385.657837,253.691818 385.721802,252.522400 
z"/>
<path fill="#A71656" opacity="1.000000" stroke="none" 
	d="
M177.946716,149.990402 
	C178.122772,149.984238 178.298813,149.978073 178.734955,150.015060 
	C178.491455,150.928238 177.987823,151.798264 177.098083,152.716919 
	C176.711990,152.765518 176.513245,152.611572 176.662048,152.353348 
	C177.189468,151.393555 177.568100,150.691986 177.946716,149.990402 
z"/>
<path fill="#841C57" opacity="1.000000" stroke="none" 
	d="
M297.968323,372.397705 
	C297.919342,373.245026 297.561951,374.203369 296.926331,375.317322 
	C296.985382,374.484863 297.322662,373.496765 297.968323,372.397705 
z"/>
<path fill="#A21654" opacity="1.000000" stroke="none" 
	d="
M271.251099,374.796265 
	C271.447479,374.281281 271.951782,373.700226 272.745819,373.059265 
	C272.543396,373.576294 272.051208,374.153259 271.251099,374.796265 
z"/>
<path fill="#A11954" opacity="1.000000" stroke="none" 
	d="
M378.967346,266.266266 
	C379.290283,265.923981 379.617950,265.859467 380.195465,265.805176 
	C380.126556,266.387329 379.807831,266.959290 379.233948,267.591492 
	C378.976532,267.282471 378.974335,266.913269 378.967346,266.266266 
z"/>
<path fill="#A91657" opacity="1.000000" stroke="none" 
	d="
M384.733643,233.927917 
	C384.688782,234.239059 384.256683,234.386200 384.022034,234.059692 
	C383.697784,233.300674 383.608124,232.868164 383.518494,232.435654 
	C383.518494,232.435654 383.734528,232.239395 383.842529,232.141296 
	C384.226562,232.567734 384.502533,233.092255 384.733643,233.927917 
z"/>
<path fill="#A91958" opacity="1.000000" stroke="none" 
	d="
M275.656311,121.874519 
	C275.340790,121.819351 275.047089,121.506111 274.715881,120.973969 
	C275.011627,121.042198 275.344879,121.329330 275.656311,121.874519 
z"/>
<path fill="#841C57" opacity="1.000000" stroke="none" 
	d="
M293.038116,381.458130 
	C293.163513,381.971954 292.980774,382.497162 292.510223,383.091370 
	C292.391602,382.596771 292.560791,382.033173 293.038116,381.458130 
z"/>
<path fill="#841C57" opacity="1.000000" stroke="none" 
	d="
M296.006836,376.298096 
	C296.196930,376.805786 296.062439,377.372406 295.646240,378.059601 
	C295.470398,377.572479 295.576294,376.964783 296.006836,376.298096 
z"/>
<path fill="#841C57" opacity="1.000000" stroke="none" 
	d="
M294.980957,378.370941 
	C295.113678,378.853485 294.943939,379.398560 294.488312,380.040344 
	C294.361145,379.569153 294.519836,379.001343 294.980957,378.370941 
z"/>
<path fill="#841C57" opacity="1.000000" stroke="none" 
	d="
M291.909241,383.241516 
	C292.086548,383.515198 291.993378,383.827148 291.647583,384.193481 
	C291.476196,383.925201 291.557495,383.602509 291.909241,383.241516 
z"/>
<path fill="#841C57" opacity="1.000000" stroke="none" 
	d="
M324.902649,404.560608 
	C324.827698,404.213806 325.039520,403.935699 325.527985,403.696014 
	C325.599548,404.032715 325.394470,404.331024 324.902649,404.560608 
z"/>
<path fill="#A11954" opacity="1.000000" stroke="none" 
	d="
M384.994263,257.615906 
	C384.683533,257.443054 384.699219,257.247650 384.977722,256.983948 
	C385.110931,256.905334 385.354950,257.220093 385.354950,257.220093 
	C385.354950,257.220093 385.191010,257.583008 384.994263,257.615906 
z"/>
<path fill="#841C57" opacity="1.000000" stroke="none" 
	d="
M288.839264,387.152527 
	C288.972137,387.418304 288.838959,387.738037 288.436523,388.102753 
	C288.302612,387.833984 288.437927,387.520264 288.839264,387.152527 
z"/>
<path fill="#841C57" opacity="1.000000" stroke="none" 
	d="
M342.160828,387.878784 
	C342.003204,387.616425 342.117645,387.286896 342.496216,386.889282 
	C342.651184,387.151367 342.542084,387.481445 342.160828,387.878784 
z"/>
<path fill="#841C57" opacity="1.000000" stroke="none" 
	d="
M287.873047,388.188751 
	C288.004822,388.473053 287.861206,388.780518 287.450836,389.123749 
	C287.321930,388.843658 287.459808,388.527771 287.873047,388.188751 
z"/>
<path fill="#841C57" opacity="1.000000" stroke="none" 
	d="
M286.892639,389.210052 
	C287.019104,389.498108 286.874664,389.812927 286.453156,390.144714 
	C286.324646,389.853394 286.473175,389.545105 286.892639,389.210052 
z"/>
<path fill="#841C57" opacity="1.000000" stroke="none" 
	d="
M327.884888,402.494385 
	C327.809082,402.149109 327.997345,401.889679 328.437653,401.684509 
	C328.509460,402.019287 328.329193,402.299744 327.884888,402.494385 
z"/>
<path fill="#841C57" opacity="1.000000" stroke="none" 
	d="
M341.068054,389.707153 
	C340.856079,389.425873 340.926300,389.093719 341.258789,388.684570 
	C341.464142,388.957092 341.407196,389.306702 341.068054,389.707153 
z"/>
<path fill="#841C57" opacity="1.000000" stroke="none" 
	d="
M285.876648,390.187988 
	C285.988373,390.477844 285.823608,390.775330 285.389343,391.096375 
	C285.279938,390.811859 285.440063,390.503723 285.876648,390.187988 
z"/>
<path fill="#841C57" opacity="1.000000" stroke="none" 
	d="
M340.082092,390.754150 
	C339.941040,390.457428 340.073364,390.147949 340.475647,389.820618 
	C340.615540,390.115601 340.485504,390.428467 340.082092,390.754150 
z"/>
<path fill="#841C57" opacity="1.000000" stroke="none" 
	d="
M329.049866,401.691772 
	C328.938995,401.375763 329.099701,401.083344 329.528748,400.804291 
	C329.638519,401.116913 329.479980,401.416138 329.049866,401.691772 
z"/>
<path fill="#841C57" opacity="1.000000" stroke="none" 
	d="
M330.114319,400.793274 
	C330.004944,400.493683 330.172241,400.200104 330.609558,399.894073 
	C330.716705,400.187531 330.553833,400.493408 330.114319,400.793274 
z"/>
<path fill="#A91958" opacity="1.000000" stroke="none" 
	d="
M269.444794,115.007202 
	C269.197327,115.239647 269.024506,115.171478 268.851685,114.858437 
	C268.809906,114.719620 269.171875,114.564606 269.171875,114.564606 
	C269.171875,114.564606 269.477631,114.812645 269.444794,115.007202 
z"/>
<path fill="#841C57" opacity="1.000000" stroke="none" 
	d="
M335.979858,395.581177 
	C335.829834,395.275726 335.936096,394.989532 336.292603,394.712585 
	C336.440582,395.014740 336.338379,395.307587 335.979858,395.581177 
z"/>
<path fill="#841C57" opacity="1.000000" stroke="none" 
	d="
M334.999939,396.613525 
	C334.848145,396.297699 334.961548,396.007904 335.329285,395.724670 
	C335.477478,396.033997 335.371307,396.336792 334.999939,396.613525 
z"/>
<path fill="#841C57" opacity="1.000000" stroke="none" 
	d="
M273.102234,399.483398 
	C273.151276,399.802917 272.936920,400.053467 272.463806,400.252594 
	C272.416290,399.938904 272.627563,399.676697 273.102234,399.483398 
z"/>
<path fill="#841C57" opacity="1.000000" stroke="none" 
	d="
M333.997620,397.595490 
	C333.850525,397.280060 333.966492,396.991669 334.336121,396.713379 
	C334.480103,397.023193 334.370422,397.322845 333.997620,397.595490 
z"/>
<path fill="#AC1859" opacity="1.000000" stroke="none" 
	d="
M172.855133,335.128296 
	C173.136581,335.310211 173.418015,335.492126 173.724915,336.042297 
	C173.750381,336.410583 173.614853,336.663818 173.491577,336.628784 
	C173.368286,336.593719 173.116974,336.535004 173.004089,336.216003 
	C172.810837,335.686157 172.730484,335.475342 172.700928,335.229797 
	C172.751724,335.195038 172.855133,335.128296 172.855133,335.128296 
z"/>
<path fill="#A11954" opacity="1.000000" stroke="none" 
	d="
M382.057190,263.616150 
	C381.851959,263.422363 381.914734,263.250793 382.175171,263.038269 
	C382.294495,262.968628 382.471344,263.304138 382.471344,263.304138 
	C382.471344,263.304138 382.246857,263.609680 382.057190,263.616150 
z"/>
<path fill="#A11954" opacity="1.000000" stroke="none" 
	d="
M381.146179,264.757690 
	C380.963745,264.536621 381.085480,264.297241 381.470703,263.998413 
	C381.743164,264.229065 381.648560,264.495850 381.146179,264.757690 
z"/>
<path fill="#A11954" opacity="1.000000" stroke="none" 
	d="
M385.236023,234.937881 
	C384.889709,235.043930 384.755371,234.899094 384.752350,234.511993 
	C385.121399,234.300934 385.309479,234.440002 385.236023,234.937881 
z"/>
<path fill="#A11954" opacity="1.000000" stroke="none" 
	d="
M349.916077,308.314697 
	C350.154633,308.620300 350.015778,308.874481 349.525818,309.114868 
	C349.221497,308.804504 349.342834,308.525238 349.916077,308.314697 
z"/>
<path fill="#A11954" opacity="1.000000" stroke="none" 
	d="
M348.926147,309.320618 
	C349.149658,309.645996 348.989746,309.894501 348.467712,310.103973 
	C348.196747,309.777405 348.342438,309.503693 348.926147,309.320618 
z"/>
<path fill="#A11954" opacity="1.000000" stroke="none" 
	d="
M350.175293,183.779907 
	C349.730530,183.851929 349.460388,183.676010 349.275970,183.051132 
	C349.290558,182.711411 349.514832,182.485703 349.673401,182.636063 
	C350.044128,182.985977 350.262360,183.178650 350.486633,183.364456 
	C350.486633,183.364456 350.278778,183.641205 350.175293,183.779907 
z"/>
<path fill="#A11954" opacity="1.000000" stroke="none" 
	d="
M349.178558,182.824417 
	C348.720886,182.874832 348.446564,182.700180 348.259888,182.069336 
	C348.276123,181.725204 348.505554,181.494751 348.674988,181.658615 
	C349.070770,182.040649 349.294250,182.261734 349.514832,182.485703 
	C349.514832,182.485703 349.290558,182.711411 349.178558,182.824417 
z"/>
<path fill="#A11954" opacity="1.000000" stroke="none" 
	d="
M338.905884,319.340393 
	C339.113525,319.627441 338.976776,319.856262 338.531433,320.080261 
	C338.239258,319.789032 338.352142,319.524597 338.905884,319.340393 
z"/>
<path fill="#A11954" opacity="1.000000" stroke="none" 
	d="
M348.161560,181.840576 
	C347.703156,181.880066 347.434937,181.694778 347.157135,181.165421 
	C347.071960,180.930771 347.354553,180.707184 347.633667,180.768982 
	C348.106110,181.055923 348.303680,181.277252 348.505554,181.494751 
	C348.505554,181.494751 348.276123,181.725204 348.161560,181.840576 
z"/>
<path fill="#A71656" opacity="1.000000" stroke="none" 
	d="
M170.835175,158.864410 
	C170.733521,159.191162 170.557846,159.464874 170.143555,159.814728 
	C169.904938,159.890900 169.801987,159.731689 169.906036,159.512619 
	C170.214111,159.099426 170.415588,158.902679 170.614487,158.703308 
	C170.614487,158.703308 170.761139,158.811356 170.835175,158.864410 
z"/>
<path fill="#AC1859" opacity="1.000000" stroke="none" 
	d="
M169.803757,332.270721 
	C170.189026,332.237030 170.466385,332.397675 170.728790,332.951477 
	C170.794479,333.205414 170.763031,333.242126 170.577240,333.122375 
	C170.157852,332.823486 169.933136,332.633850 169.717316,332.433685 
	C169.717316,332.433685 169.776489,332.325867 169.803757,332.270721 
z"/>
<path fill="#AC1859" opacity="1.000000" stroke="none" 
	d="
M170.808945,333.186035 
	C171.105576,333.333527 171.387741,333.500427 171.740112,333.926270 
	C171.810318,334.185211 171.766708,334.231995 171.574661,334.093506 
	C171.136826,333.751526 170.930298,333.513885 170.763031,333.242126 
	C170.763031,333.242126 170.794479,333.205414 170.808945,333.186035 
z"/>
<path fill="#AC1859" opacity="1.000000" stroke="none" 
	d="
M171.831360,334.161133 
	C172.130875,334.309174 172.409332,334.481262 172.771469,334.890808 
	C172.855133,335.128296 172.751724,335.195038 172.539993,335.070221 
	C172.112762,334.729889 171.925568,334.492065 171.766708,334.231995 
	C171.766708,334.231995 171.810318,334.185211 171.831360,334.161133 
z"/>
<path fill="#841C57" opacity="1.000000" stroke="none" 
	d="
M293.914062,380.236298 
	C294.111328,380.489075 294.050354,380.801331 293.744873,381.177673 
	C293.552216,380.926453 293.604034,380.611115 293.914062,380.236298 
z"/>
<path fill="#AC1859" opacity="1.000000" stroke="none" 
	d="
M173.816071,336.282898 
	C174.232300,336.199463 174.503281,336.370117 174.709564,336.970459 
	C174.724426,337.273865 174.590668,337.413605 174.429382,337.286865 
	C174.056458,336.986694 173.838715,336.821259 173.614853,336.663818 
	C173.614853,336.663818 173.750381,336.410583 173.816071,336.282898 
z"/>
<path fill="#AC1859" opacity="1.000000" stroke="none" 
	d="
M174.790741,337.203430 
	C175.133514,337.308350 175.409988,337.483704 175.707001,337.963318 
	C175.727570,338.267578 175.597656,338.401489 175.419067,338.248291 
	C175.007767,337.883301 174.791153,337.656128 174.590668,337.413605 
	C174.590668,337.413605 174.724426,337.273865 174.790741,337.203430 
z"/>
<path fill="#AC1859" opacity="1.000000" stroke="none" 
	d="
M175.791946,338.200073 
	C176.134460,338.305115 176.412613,338.477631 176.715134,338.953461 
	C176.739517,339.256775 176.605804,339.394012 176.425476,339.241425 
	C176.010254,338.877686 175.794434,338.648560 175.597656,338.401489 
	C175.597656,338.401489 175.727570,338.267578 175.791946,338.200073 
z"/>
<path fill="#A71656" opacity="1.000000" stroke="none" 
	d="
M176.811981,152.841675 
	C176.853470,153.265594 176.678284,153.538437 176.154419,153.826080 
	C175.922424,153.915802 175.766617,153.702042 175.844604,153.456253 
	C176.124069,153.015366 176.320953,152.815735 176.513245,152.611572 
	C176.513245,152.611572 176.711990,152.765518 176.811981,152.841675 
z"/>
<path fill="#AC1859" opacity="1.000000" stroke="none" 
	d="
M176.805939,339.187714 
	C177.145096,339.298920 177.417816,339.479218 177.768433,339.898438 
	C177.846329,340.137390 177.649185,340.272583 177.410553,340.172180 
	C176.977203,339.850891 176.788498,339.624969 176.605804,339.394012 
	C176.605804,339.394012 176.739517,339.256775 176.805939,339.187714 
z"/>
<path fill="#A91958" opacity="1.000000" stroke="none" 
	d="
M277.485565,124.941208 
	C277.164978,125.051292 276.997223,124.867332 276.911194,124.408585 
	C277.244171,124.228157 277.459351,124.399277 277.485565,124.941208 
z"/>
<path fill="#A91958" opacity="1.000000" stroke="none" 
	d="
M276.448029,122.939194 
	C276.124573,123.089706 275.950226,122.939697 275.844177,122.517548 
	C276.178925,122.262917 276.407135,122.393997 276.448029,122.939194 
z"/>
<path fill="#A91958" opacity="1.000000" stroke="none" 
	d="
M274.264526,119.966064 
	C274.169281,120.120087 273.788513,119.868774 273.788635,119.748505 
	C273.788788,119.628242 274.136841,119.526695 274.136841,119.526695 
	C274.136841,119.526695 274.359802,119.812035 274.264526,119.966064 
z"/>
<path fill="#A91958" opacity="1.000000" stroke="none" 
	d="
M273.499176,118.949348 
	C273.182465,119.118782 272.994812,118.973228 272.859314,118.544632 
	C273.182739,118.274658 273.421631,118.398918 273.499176,118.949348 
z"/>
<path fill="#A91958" opacity="1.000000" stroke="none" 
	d="
M272.624481,117.932678 
	C272.335968,118.144585 272.107941,118.010254 271.894104,117.559769 
	C272.186005,117.275444 272.444916,117.389717 272.624481,117.932678 
z"/>
<path fill="#A91958" opacity="1.000000" stroke="none" 
	d="
M271.632874,116.933044 
	C271.351379,117.153450 271.124542,117.029579 270.900909,116.597519 
	C271.184418,116.288872 271.445557,116.388680 271.632874,116.933044 
z"/>
<path fill="#230416" opacity="1.000000" stroke="none" 
	d="
M228.825912,224.471283 
	C229.421051,224.034393 230.314346,223.791565 230.315872,223.797043 
	C232.963776,233.307663 235.552612,242.834747 238.291504,252.913086 
	C232.122986,252.913086 226.770004,252.913086 220.800644,252.913086 
	C223.531372,243.197449 226.119431,233.989395 228.825912,224.471283 
z"/>
<path fill="#E51F75" opacity="1.000000" stroke="none" 
	d="
M147.887131,338.203125 
	C141.955841,332.947815 139.297958,320.161163 142.561249,312.784698 
	C143.742981,310.113495 145.251175,309.512848 147.390152,311.801208 
	C148.185852,312.652496 148.964874,313.519379 149.712448,314.921875 
	C149.909286,319.834167 150.524307,324.227142 150.256561,328.565613 
	C150.056030,331.814484 148.718430,334.993195 147.887131,338.203125 
z"/>
<path fill="#D91F6F" opacity="1.000000" stroke="none" 
	d="
M147.968994,338.526001 
	C148.718430,334.993195 150.056030,331.814484 150.256561,328.565613 
	C150.524307,324.227142 149.909286,319.834167 149.890472,315.208923 
	C156.196777,320.495209 158.718506,327.151947 157.146362,335.438873 
	C156.564072,338.508148 157.052307,341.780518 157.052307,345.354431 
	C152.652084,345.656891 150.341171,342.268921 147.968994,338.526001 
z"/>
<path fill="#D33E80" opacity="1.000000" stroke="none" 
	d="
M176.425476,339.241425 
	C176.788498,339.624969 176.977203,339.850891 177.312927,340.241150 
	C179.965698,343.533081 182.477432,346.655640 185.116791,349.936829 
	C181.147842,352.663086 176.607590,353.766876 171.382538,351.975677 
	C171.842041,346.469299 172.479507,341.502136 173.116974,336.535004 
	C173.116974,336.535004 173.368286,336.593719 173.491577,336.628784 
	C173.838715,336.821259 174.056458,336.986694 174.429382,337.286865 
	C174.791153,337.656128 175.007767,337.883301 175.419067,338.248291 
	C175.794434,338.648560 176.010254,338.877686 176.425476,339.241425 
z"/>
<path fill="#C7296E" opacity="1.000000" stroke="none" 
	d="
M173.004089,336.216003 
	C172.479507,341.502136 171.842041,346.469299 171.042603,351.757568 
	C167.326141,352.372803 166.930481,350.148590 166.855423,347.343719 
	C166.755234,343.600769 166.082794,339.854370 166.237244,336.133575 
	C166.291809,334.819336 168.054779,333.575989 169.377533,332.367004 
	C169.933136,332.633850 170.157852,332.823486 170.577240,333.122375 
	C170.930298,333.513885 171.136826,333.751526 171.574661,334.093506 
	C171.925568,334.492065 172.112762,334.729889 172.489197,335.104980 
	C172.730484,335.475342 172.810837,335.686157 173.004089,336.216003 
z"/>
<path fill="#D31C6C" opacity="1.000000" stroke="none" 
	d="
M231.860413,114.835571 
	C234.509323,113.707489 237.410736,111.383446 239.718628,111.870697 
	C241.263977,112.196976 242.771820,116.475632 242.897232,119.053787 
	C243.293533,127.199974 242.132812,128.023529 232.500458,127.679764 
	C232.565872,124.917839 232.593231,122.307739 233.696426,120.284172 
	C235.261627,117.413177 233.927673,116.153603 231.860413,114.835571 
z"/>
<path fill="#E51F75" opacity="1.000000" stroke="none" 
	d="
M231.571426,115.032310 
	C233.927673,116.153603 235.261627,117.413177 233.696426,120.284172 
	C232.593231,122.307739 232.565872,124.917839 232.056931,127.669434 
	C230.366058,128.103302 228.676437,128.133820 226.343994,128.231537 
	C225.421188,128.446503 225.186768,128.647430 224.997894,128.901505 
	C218.090775,128.983459 218.074936,128.955322 221.062943,121.511398 
	C221.075165,121.138542 221.061462,121.059944 221.100967,121.065826 
	C224.521133,119.124153 227.901779,117.176598 231.571426,115.032310 
z"/>
<path fill="#CC2E73" opacity="1.000000" stroke="none" 
	d="
M260.027252,128.842377 
	C252.955307,129.073196 252.943390,129.073181 252.947983,122.050056 
	C252.949585,119.591194 252.853729,117.114464 253.107559,114.677689 
	C253.502533,110.885986 255.321167,108.899338 259.701904,111.231018 
	C260.009766,117.568848 260.018494,123.205612 260.027252,128.842377 
z"/>
<path fill="#D33E80" opacity="1.000000" stroke="none" 
	d="
M260.441589,128.877701 
	C260.018494,123.205612 260.009766,117.568848 260.002075,111.463715 
	C261.858276,111.833527 263.713379,112.671692 265.778503,113.773506 
	C265.662506,118.696571 265.336517,123.356003 265.010773,128.431671 
	C263.625977,128.869629 262.240936,128.891327 260.441589,128.877701 
z"/>
<path fill="#D31C6C" opacity="1.000000" stroke="none" 
	d="
M225.215302,128.819901 
	C225.186768,128.647430 225.421188,128.446503 225.923691,128.224319 
	C225.952423,128.399445 225.714600,128.595581 225.215302,128.819901 
z"/>
<path fill="#FC6CD2" opacity="1.000000" stroke="none" 
	d="
M389.157654,204.804291 
	C385.099670,201.801331 380.913239,198.990265 377.061157,195.778198 
	C375.737335,194.674286 374.121643,192.157593 374.549957,190.983093 
	C379.848907,176.452576 378.761963,162.235382 373.232727,148.094269 
	C373.062622,147.659210 373.145844,147.125122 373.021088,145.379639 
	C388.085022,149.212402 398.223053,158.379959 406.016296,170.635345 
	C418.182495,189.767578 416.872955,216.224442 406.924164,228.924622 
	C402.265869,220.058640 398.707642,210.547302 389.575867,204.843262 
	C389.229767,204.839203 389.160339,204.838913 389.157654,204.804291 
z"/>
<path fill="#E02073" opacity="1.000000" stroke="none" 
	d="
M365.043396,229.063812 
	C365.043732,225.221451 365.043732,221.866714 365.043732,217.844086 
	C370.003754,219.378220 372.105438,221.565445 372.053650,225.378357 
	C371.894257,237.104324 371.644287,248.829071 371.476746,260.554962 
	C371.460541,261.687744 371.503113,262.956146 371.979950,263.937286 
	C373.801453,267.685394 372.201782,270.193634 369.410187,272.580933 
	C366.769684,274.838959 365.591370,273.822083 365.133209,270.947845 
	C364.926025,269.647949 365.043915,268.293457 365.043518,266.963745 
	C365.039795,254.492981 365.042328,242.022217 365.043396,229.063812 
z"/>
<path fill="#D33E80" opacity="1.000000" stroke="none" 
	d="
M383.281433,232.223633 
	C383.608124,232.868164 383.697784,233.300674 383.794006,234.068939 
	C383.201172,237.931274 382.224823,241.444611 382.100311,244.987869 
	C381.953491,249.165192 382.544006,253.368423 382.968506,257.919952 
	C383.000427,259.004944 382.878662,259.730377 382.608429,260.805176 
	C381.386719,260.844727 380.313446,260.534882 378.986389,260.054779 
	C378.761688,259.486511 378.790802,259.088562 379.103210,258.059265 
	C379.589996,255.652481 380.012695,253.870438 379.959717,252.102615 
	C379.709412,243.741470 379.329071,235.384232 378.995087,227.025589 
	C380.344849,228.687592 381.694611,230.349594 383.281433,232.223633 
z"/>
<path fill="#CC2E73" opacity="1.000000" stroke="none" 
	d="
M378.730957,226.845352 
	C379.329071,235.384232 379.709412,243.741470 379.959717,252.102615 
	C380.012695,253.870438 379.589996,255.652481 379.109680,257.759094 
	C378.324005,255.904373 377.453552,253.731995 377.371796,251.530334 
	C377.089539,243.924316 377.043671,236.308105 377.036438,228.695679 
	C377.035767,228.019257 377.967926,227.341980 378.730957,226.845352 
z"/>
<path fill="#DE518E" opacity="1.000000" stroke="none" 
	d="
M348.674988,181.658615 
	C348.303680,181.277252 348.106110,181.055923 347.774353,180.656433 
	C346.847870,179.195312 346.059814,177.908539 345.196655,175.926544 
	C345.386932,170.453903 345.568176,165.669785 345.948151,160.901535 
	C346.190186,157.864487 346.726959,154.850906 347.131561,151.826813 
	C349.346741,155.899277 352.807220,159.776291 353.484283,164.090164 
	C354.492279,170.512543 356.285217,177.625748 350.778564,183.440948 
	C350.262360,183.178650 350.044128,182.985977 349.673401,182.636063 
	C349.294250,182.261734 349.070770,182.040649 348.674988,181.658615 
z"/>
<path fill="#D33E80" opacity="1.000000" stroke="none" 
	d="
M347.060120,151.495117 
	C346.726959,154.850906 346.190186,157.864487 345.948151,160.901535 
	C345.568176,165.669785 345.386932,170.453903 345.028015,175.644714 
	C343.028564,174.245667 341.122559,172.433212 339.240021,169.960083 
	C339.520844,161.506668 339.778229,153.713928 340.035583,145.921204 
	C342.353271,147.668610 344.670990,149.416016 347.060120,151.495117 
z"/>
<path fill="#C7296E" opacity="1.000000" stroke="none" 
	d="
M340.015289,145.941879 
	C339.778229,153.713928 339.520844,161.506668 339.065552,169.678177 
	C335.204926,167.639709 333.663788,164.274841 333.879120,159.869171 
	C334.089996,155.554764 333.828644,151.218567 333.990631,146.900055 
	C334.105255,143.844742 335.152679,141.802780 338.930481,144.757278 
	C339.517670,145.519943 339.779297,145.758377 340.040924,145.996826 
	C340.040924,145.996826 339.994995,145.962555 340.015289,145.941879 
z"/>
<path fill="#D31C6C" opacity="1.000000" stroke="none" 
	d="
M321.019836,139.969696 
	C329.041260,140.147842 333.192139,146.743378 329.657898,153.949036 
	C329.266144,154.747787 327.275055,155.602615 326.593903,155.269516 
	C324.014496,154.008041 321.669159,152.268066 319.338562,150.224487 
	C319.967224,146.484497 320.493530,143.227097 321.019836,139.969696 
z"/>
<path fill="#E02073" opacity="1.000000" stroke="none" 
	d="
M320.586365,139.959534 
	C320.493530,143.227097 319.967224,146.484497 319.149780,149.940002 
	C316.877533,148.729568 314.896393,147.321030 312.575684,145.897003 
	C312.236053,145.881516 312.120636,145.873535 312.115906,145.815811 
	C311.873840,144.502838 311.636505,143.247604 311.217926,141.033554 
	C314.300018,140.659576 317.226410,140.304474 320.586365,139.959534 
z"/>
<path fill="#D33E80" opacity="1.000000" stroke="none" 
	d="
M339.923676,145.755066 
	C339.779297,145.758377 339.517670,145.519943 339.125244,145.045197 
	C339.265076,145.043701 339.535767,145.278503 339.923676,145.755066 
z"/>
<path fill="#D31C6C" opacity="1.000000" stroke="none" 
	d="
M232.919571,363.259521 
	C244.520355,363.957642 245.283646,364.908295 243.276596,376.159149 
	C242.202621,382.179443 242.202621,382.179443 233.456268,379.043274 
	C233.786011,377.562927 234.591171,376.541382 234.503220,375.603668 
	C234.116028,371.475769 233.471115,367.372009 232.919571,363.259521 
z"/>
<path fill="#E51F75" opacity="1.000000" stroke="none" 
	d="
M232.466064,363.209717 
	C233.471115,367.372009 234.116028,371.475769 234.503220,375.603668 
	C234.591171,376.541382 233.786011,377.562927 233.173401,378.821411 
	C227.888535,376.241699 223.097656,373.135376 220.279816,367.712769 
	C218.580338,364.442322 219.460983,363.020447 223.020721,363.034241 
	C226.018127,363.045868 229.015274,363.115784 232.466064,363.209717 
z"/>
<path fill="#D1397D" opacity="1.000000" stroke="none" 
	d="
M264.568787,363.126465 
	C265.335968,367.863647 265.662964,372.551666 265.985718,377.646301 
	C263.218719,379.328735 260.455933,380.604553 257.403076,381.568176 
	C257.092743,375.235962 257.072449,369.216003 257.052124,363.196014 
	C259.410950,363.156433 261.769745,363.116852 264.568787,363.126465 
z"/>
<path fill="#C7296E" opacity="1.000000" stroke="none" 
	d="
M256.651672,363.150879 
	C257.072449,369.216003 257.092743,375.235962 257.040802,381.626343 
	C255.078568,382.359955 253.188568,382.723236 250.270447,383.284088 
	C250.270447,376.918427 249.976669,371.221924 250.539871,365.611420 
	C250.641891,364.595337 254.257614,363.931946 256.651672,363.150879 
z"/>
<path fill="#E51F75" opacity="1.000000" stroke="none" 
	d="
M151.127655,175.159012 
	C150.066269,176.637405 149.173813,178.290054 147.887695,179.536591 
	C146.934799,180.460205 145.212341,181.603577 144.301407,181.289520 
	C143.259811,180.930435 142.280838,179.143616 142.060577,177.843964 
	C140.169220,166.684418 142.601059,156.836899 151.799011,149.336609 
	C153.386673,158.202454 155.612122,166.832397 151.127655,175.159012 
z"/>
<path fill="#D31C6C" opacity="1.000000" stroke="none" 
	d="
M151.457581,175.067352 
	C155.612122,166.832397 153.386673,158.202454 152.124054,149.227036 
	C153.133255,147.687988 154.179871,145.820221 155.500504,145.600632 
	C156.894958,145.368820 159.464752,146.312134 159.946976,147.424515 
	C163.653030,155.973145 159.424118,169.690720 151.457581,175.067352 
z"/>
<path fill="#C7296E" opacity="1.000000" stroke="none" 
	d="
M170.743225,158.421371 
	C170.415588,158.902679 170.214111,159.099426 169.853088,159.433990 
	C168.463074,159.912979 167.230011,160.251541 165.944565,160.604492 
	C165.944565,155.294678 166.070511,150.267700 165.903900,145.250443 
	C165.775436,141.382050 167.405014,139.378128 171.552277,139.540771 
	C170.394562,145.235123 169.729324,150.547485 171.855377,155.859329 
	C171.527557,156.619354 171.199753,157.379395 170.743225,158.421371 
z"/>
<path fill="#D1397D" opacity="1.000000" stroke="none" 
	d="
M172.058868,155.606430 
	C169.729324,150.547485 170.394562,145.235123 171.937286,139.551117 
	C173.499680,139.303589 174.977234,139.427551 176.720673,139.808884 
	C177.153961,143.155350 177.321381,146.244446 177.717758,149.661987 
	C177.568100,150.691986 177.189468,151.393555 176.662048,152.353348 
	C176.320953,152.815735 176.124069,153.015366 175.765808,153.350037 
	C174.493484,154.110916 173.377914,154.732224 172.058868,155.606430 
z"/>
<path fill="#CC2E73" opacity="1.000000" stroke="none" 
	d="
M341.991882,345.694336 
	C341.936005,346.408173 341.857971,346.743134 341.669464,347.309692 
	C339.986359,347.897217 338.413727,348.253174 335.837524,348.836243 
	C335.450104,339.310699 332.653442,330.227539 338.389740,321.243896 
	C339.315399,321.635956 340.605743,322.344849 340.624176,323.085388 
	C340.762085,328.629333 340.534180,334.182556 340.678101,339.726166 
	C340.726715,341.599182 341.517883,343.452881 341.991882,345.694336 
z"/>
<path fill="#D91F6F" opacity="1.000000" stroke="none" 
	d="
M312.225281,346.130432 
	C315.218597,344.052399 318.055542,341.867096 321.075500,339.973572 
	C322.358215,339.169312 324.429840,338.206299 325.404449,338.719055 
	C326.415649,339.251038 326.840607,341.450470 326.992432,342.973450 
	C328.020782,353.287140 321.047913,353.192749 313.994354,350.998566 
	C313.049957,350.704773 312.718689,348.439911 312.112366,346.696899 
	C312.121277,346.305939 312.142914,346.141235 312.225281,346.130432 
z"/>
<path fill="#D91F6F" opacity="1.000000" stroke="none" 
	d="
M118.071571,254.693176 
	C118.184937,257.255951 118.297699,259.362091 118.503250,263.201477 
	C116.016197,260.948120 114.252518,259.868805 113.204079,258.308838 
	C109.057648,252.139359 109.318596,238.034012 113.689606,232.140106 
	C114.438095,231.130829 116.120590,230.814209 117.371628,230.177628 
	C117.781242,231.419052 118.550056,232.663208 118.540718,233.901459 
	C118.489571,240.680618 118.247467,247.458328 118.071571,254.693176 
z"/>
<path fill="#D95690" opacity="1.000000" stroke="none" 
	d="
M128.259735,216.721161 
	C132.126511,216.009583 130.974121,218.861893 130.979431,220.501785 
	C131.038269,238.665054 130.984634,256.828674 130.940277,275.452911 
	C129.736237,275.442719 128.553314,274.971771 127.132797,273.973877 
	C126.614594,272.966614 126.333969,272.486359 126.052261,271.676849 
	C126.053246,270.908600 126.055321,270.469574 126.415344,269.873962 
	C127.183029,268.199951 127.922844,266.688629 127.951080,265.164154 
	C128.214233,250.957108 128.404999,236.747955 128.444839,222.538925 
	C128.448364,221.287872 127.232903,220.033386 126.583618,218.780502 
	C127.080727,218.170364 127.577835,217.560226 128.259735,216.721161 
z"/>
<path fill="#CC2E73" opacity="1.000000" stroke="none" 
	d="
M126.057388,270.030579 
	C126.055321,270.469574 126.053246,270.908600 125.843811,271.806732 
	C125.379852,272.473145 125.162994,272.715912 124.985863,272.994141 
	C123.967453,270.317963 122.133949,267.661346 122.069084,264.962250 
	C121.757332,251.988998 121.828850,239.002853 122.022301,226.025131 
	C122.050980,224.101624 123.455780,222.198639 124.582474,220.555328 
	C124.959549,234.958389 124.931740,249.092667 125.043709,263.225830 
	C125.061699,265.496613 125.703796,267.762451 126.057388,270.030579 
z"/>
<path fill="#D94285" opacity="1.000000" stroke="none" 
	d="
M126.415344,269.873962 
	C125.703796,267.762451 125.061699,265.496613 125.043709,263.225830 
	C124.931740,249.092667 124.959549,234.958389 124.892975,220.343765 
	C125.261452,219.551773 125.677971,219.240509 126.339050,218.854874 
	C127.232903,220.033386 128.448364,221.287872 128.444839,222.538925 
	C128.404999,236.747955 128.214233,250.957108 127.951080,265.164154 
	C127.922844,266.688629 127.183029,268.199951 126.415344,269.873962 
z"/>
<path fill="#D94285" opacity="1.000000" stroke="none" 
	d="
M125.171425,273.212219 
	C125.162994,272.715912 125.379852,272.473145 125.844894,272.135986 
	C126.333969,272.486359 126.614594,272.966614 126.919205,273.730957 
	C126.414467,273.820160 125.885727,273.625244 125.171425,273.212219 
z"/>
</svg>